<?xml version="1.0" encoding="utf-8"?>
<svg viewBox="46.152 45.336 397 74.465" xmlns="http://www.w3.org/2000/svg">
  <g fill="#ff5c39" fill-rule="nonzero" stroke="none" stroke-width="1" stroke-linecap="butt" stroke-linejoin="miter" stroke-miterlimit="10" stroke-dasharray="" stroke-dashoffset="0" font-family="none" font-weight="none" font-size="none" text-anchor="none" style="mix-blend-mode: normal" transform="matrix(1, 0, 0, 1, -34.847527, -135.005814)">
    <g data-paper-data="{&quot;isGlobalGroup&quot;:true,&quot;bounds&quot;:{&quot;x&quot;:65,&quot;y&quot;:180.34215123650029,&quot;width&quot;:420,&quot;height&quot;:109.31569752699943}}">
      <g data-paper-data="{&quot;isPrimaryText&quot;:true}">
        <path d="M 134.435 254.137 L 98.202 217.323 L 134.435 180.342 L 146.319 180.342 L 110.252 217.24 L 146.319 254.137 L 134.435 254.137 Z M 89.393 254.22 L 81 254.22 L 81 180.425 L 89.393 180.425 L 89.393 254.22 Z" data-paper-data="{&quot;glyphName&quot;:&quot;K&quot;,&quot;glyphIndex&quot;:0,&quot;firstGlyphOfWord&quot;:true,&quot;word&quot;:1}"/>
        <path d="M267.68698,180.42525v8.72576h-46.6205v-8.72576zM267.68698,219.40032v8.80886h-38.22715v26.01108h-8.39335v-34.81994z" data-paper-data="{&quot;glyphName&quot;:&quot;F&quot;,&quot;glyphIndex&quot;:2,&quot;word&quot;:1}"/>
        <path d="M 324.615 180.425 L 324.615 189.151 L 277.994 189.151 L 277.994 180.425 L 324.615 180.425 Z M 324.615 219.4 L 324.615 228.209 L 286.388 228.209 L 286.388 254.22 L 277.994 254.22 L 277.994 219.4 L 324.615 219.4 Z" data-paper-data="{&quot;glyphName&quot;:&quot;F&quot;,&quot;glyphIndex&quot;:3,&quot;word&quot;:1}"/>
        <path d="M 358.659 183.001 L 393.479 254.22 L 384.006 254.22 L 358.742 202.697 L 333.396 254.22 L 323.922 254.22 L 358.659 183.001 Z" data-paper-data="{&quot;glyphName&quot;:&quot;A&quot;,&quot;glyphIndex&quot;:4,&quot;word&quot;:1}"/>
        <path d="M 411.18 254.22 L 402.787 254.22 L 402.787 180.425 L 411.18 180.425 L 411.18 254.22 Z" data-paper-data="{&quot;glyphName&quot;:&quot;I&quot;,&quot;glyphIndex&quot;:5,&quot;word&quot;:1}"/>
        <path d="M 466.781 254.22 L 447.169 219.4 C 449.662 219.483 452.238 219.483 454.731 219.483 C 462.958 219.483 469.607 212.503 469.607 204.193 C 469.607 195.965 462.792 189.151 454.731 189.151 L 422.488 189.151 L 422.488 180.425 L 454.731 180.425 C 467.695 180.425 478 190.979 478 204.193 C 478 213.832 472.432 222.641 463.706 226.381 L 461.546 227.378 L 476.504 254.22 L 466.781 254.22 Z M 422.488 254.22 L 422.488 204.276 L 430.881 204.276 L 430.881 254.22 L 422.488 254.22 Z" data-paper-data="{&quot;glyphName&quot;:&quot;R&quot;,&quot;glyphIndex&quot;:6,&quot;lastGlyphOfWord&quot;:true,&quot;word&quot;:1}"/>
        <g data-paper-data="{&quot;fillRule&quot;:&quot;evenodd&quot;,&quot;fillRuleOriginal&quot;:&quot;evenodd&quot;,&quot;isIcon&quot;:true,&quot;iconStyle&quot;:&quot;icon-in-text&quot;,&quot;selectedEffects&quot;:{&quot;container&quot;:&quot;&quot;,&quot;transformation&quot;:&quot;&quot;,&quot;pattern&quot;:&quot;&quot;},&quot;bounds&quot;:{&quot;x&quot;:139.626,&quot;y&quot;:180.425,&quot;width&quot;:72.13299999999998,&quot;height&quot;:73.79499999999999},&quot;iconType&quot;:&quot;icon&quot;,&quot;rawIconId&quot;:&quot;9307&quot;,&quot;combineTerms&quot;:&quot;suitcase&quot;,&quot;isDetailed&quot;:false,&quot;suitableAsStandaloneIcon&quot;:true}">
          <path d="M211.759,217.323c0,10.221 -3.573,18.864 -10.637,26.011c-7.23,7.23 -15.457,10.886 -25.429,10.886c-19.862,0 -36.067,-16.62 -36.067,-36.897c0,-20.36 16.205,-36.898 36.067,-36.898c19.778,0 36.066,16.621 36.066,36.898zM169.15661,191.77218h13.07305v4.59408h3.60361v-6.40012c0,-0.4726 -0.18904,-0.93613 -0.52636,-1.27176c-0.33393,-0.33733 -0.80143,-0.52806 -1.27572,-0.52806h-16.67665c-0.47486,0 -0.94179,0.19074 -1.27516,0.52863c-0.33733,0.33563 -0.52863,0.79917 -0.52863,1.27176v6.39956h3.60587zM153.42628,198.2289c-3.16044,0 -5.72264,2.5639 -5.72264,5.7266v4.94951h10.70215v-1.00858c0,-1.12008 0.9067,-2.02621 2.02791,-2.02621c1.11781,0 2.02452,0.9067 2.02452,2.02621v1.00801h26.46022v-1.00801c0,-1.12121 0.90784,-2.02791 2.02735,-2.02791c1.11668,0 2.02395,0.9067 2.02395,2.02791v1.00801h10.71177v-4.94951c0,-3.16214 -2.56107,-5.72604 -5.72377,-5.72604zM192.96972,213.66775c0,1.12008 -0.90784,2.02452 -2.02395,2.02452c-1.12008,0 -2.02735,-0.90501 -2.02735,-2.02452v-1.53494h-26.46022v1.53664c0,1.11838 -0.9067,2.02452 -2.02452,2.02452c-1.12121,0 -2.02791,-0.9067 -2.02791,-2.02452v-1.53664h-10.70215v19.81219c0,3.15874 2.56163,5.72208 5.72264,5.72208h44.53145c3.16271,0 5.72377,-2.56333 5.72377,-5.72208v-19.81219h-10.71177z" data-paper-data="{&quot;isPathIcon&quot;:true}"/>
        </g>
      </g>
    </g>
    <ellipse style="fill: rgb(255, 91, 56);" cx="176.456" cy="218.193" rx="36.614" ry="36.614"/>
    <ellipse style="fill: rgb(79, 79, 79);" cx="176.125" cy="217.404" rx="23.349" ry="23.349"/>
  </g>
</svg>